<?xml version="1.0" encoding="UTF-8"?>
<svg xmlns="http://www.w3.org/2000/svg" viewBox="0 0 2964 2964">
  <path fill="white" stroke="#555" stroke-width="25" stroke-linejoin="round" d="M 1069.390625 2360.898438 L 1081.878906 2348.089844 C 1116.769531 2310.5625 1148.640625 2284.417969 1177.488281 2269.667969 L 1235.050781 2069.019531 C 1244.398438 2038.492188 1251.230469 2021.121094 1255.53125 2016.90625 C 1396.730469 2004.394531 1491.929688 1982.972656 1541.148438 1952.640625 C 1595.058594 1928.25 1651.441406 1872.101562 1710.300781 1784.191406 C 1780.28125 1673.789062 1823.269531 1601.871094 1839.269531 1568.421875 C 1857.851562 1532.398438 1883.441406 1468.589844 1916.039062 1376.980469 C 1786.410156 1479.71875 1665.988281 1532.550781 1554.789062 1535.480469 C 1695.320312 1502.441406 1788.988281 1461.371094 1835.789062 1412.25 C 1901.601562 1361.28125 1955.101562 1269.039062 1996.269531 1135.539062 L 1813.160156 1271.660156 C 1792.859375 1285.710938 1722.691406 1323.128906 1602.671875 1383.921875 C 1848.46875 1264.671875 2005.179688 1086.078125 2072.769531 848.140625 C 2076.988281 830.621094 2081.019531 812.839844 2084.859375 794.78125 C 1994.71875 907.589844 1878.929688 1006.210938 1737.488281 1090.648438 C 1863.179688 1002.480469 1953.878906 916.570312 2009.589844 832.890625 C 2025.808594 809.679688 2045.398438 770.429688 2068.359375 715.160156 C 2082.960938 681.828125 2108.191406 598.101562 2144.058594 463.960938 C 2153.941406 435 2168.589844 401.679688 2188.011719 364 C 2005.128906 446.929688 1881.429688 533.960938 1816.898438 625.121094 C 1765.339844 694.25 1726.160156 766.339844 1699.351562 841.371094 C 1677.710938 904.578125 1666.808594 967.558594 1666.660156 1030.289062 C 1663.980469 937.011719 1684.421875 843.609375 1728 750.070312 C 1657.730469 804.410156 1600.691406 859.320312 1556.878906 914.820312 C 1520.261719 959.050781 1495.609375 1009.101562 1482.921875 1064.980469 C 1472.128906 1105.710938 1472.480469 1178.871094 1483.949219 1284.480469 C 1473.660156 1199.828125 1469.5 1138.378906 1471.46875 1100.140625 C 1472.171875 1061.160156 1480.339844 1006.78125 1495.96875 936.980469 C 1452.191406 1000.160156 1425.980469 1054.621094 1417.328125 1100.339844 C 1406.328125 1143.539062 1403.070312 1222.480469 1407.550781 1337.140625 C 1397.640625 1244.101562 1393.410156 1180.121094 1394.851562 1145.21875 C 1395.148438 1108.25 1401.988281 1064.410156 1415.371094 1013.710938 C 1337.488281 1145.910156 1297.898438 1231.070312 1296.589844 1269.210938 C 1288.609375 1308.550781 1303.519531 1388.039062 1341.320312 1507.699219 C 1310.410156 1426.789062 1292.199219 1368.019531 1286.679688 1331.410156 C 1279.390625 1294.109375 1278.378906 1242 1283.660156 1175.078125 L 1207.820312 1308.230469 C 1186.859375 1346.308594 1173.28125 1372.160156 1167.101562 1385.789062 C 1152.171875 1415.308594 1138.140625 1454.601562 1125.039062 1503.671875 C 1104.96875 1583.390625 1102.441406 1664.089844 1117.449219 1745.761719 C 1131.230469 1811.929688 1163.691406 1889.300781 1214.839844 1977.878906 L 1069.390625 2360.898438 Z" />
</svg>
